<?xml version="1.0" encoding="UTF-8" standalone="no"?>
<svg
   width="128"
   height="128"
   version="1.1"
   id="svg80"
   sodipodi:docname="hibernate.svg"
   viewBox="0 0 16 16"
   inkscape:version="1.2.2 (b0a8486541, 2022-12-01)"
   xmlns:inkscape="http://www.inkscape.org/namespaces/inkscape"
   xmlns:sodipodi="http://sodipodi.sourceforge.net/DTD/sodipodi-0.dtd"
   xmlns="http://www.w3.org/2000/svg"
   xmlns:svg="http://www.w3.org/2000/svg">
  <defs
     id="defs84" />
  <sodipodi:namedview
     id="namedview82"
     pagecolor="#505050"
     bordercolor="#eeeeee"
     borderopacity="1"
     inkscape:showpageshadow="0"
     inkscape:pageopacity="0"
     inkscape:pagecheckerboard="0"
     inkscape:deskcolor="#505050"
     showgrid="false"
     inkscape:zoom="4.3670654"
     inkscape:cx="-41.790077"
     inkscape:cy="89.190328"
     inkscape:window-width="1912"
     inkscape:window-height="1013"
     inkscape:window-x="0"
     inkscape:window-y="0"
     inkscape:window-maximized="1"
     inkscape:current-layer="svg80" />
  <path
     d="m 3.0503,3.0503 a 7,7 0 0 0 0,9.8995 7,7 0 0 0 9.8995,0 7,7 0 0 0 1.4266,-2.0923 7,7 0 0 0 0.01243,-0.0041 7,7 0 0 0 0.05248,-0.13258 7,7 0 0 0 0.09391,-0.24307 7,7 0 0 0 0.15882,-0.45713 7,7 0 0 0 0.05248,-0.19335 7,7 0 0 0 0.09667,-0.35632 6,6 0 0 1 -0.0069,0.00414 6,6 0 0 1 -0.0055,0.00276 6,6 0 0 1 -1.2112,0.60629 6,6 0 0 1 -0.0014,0.0014 A 6,6 0 0 1 7.29289,8.70714 6,6 0 0 1 5.98499,2.21754 6,6 0 0 1 6.10376,1.94409 6,6 0 0 1 6.25292,1.64578 6,6 0 0 1 6.38965,1.40133 6,6 0 0 1 6.53466,1.16241 6,6 0 0 1 6.5388,1.1555 7,7 0 0 0 3.0502,3.0503 Z m 0.70711,0.70711 a 6,6 0 0 1 0.94465,-0.76511 7,7 0 0 0 1.8838,6.422 7,7 0 0 0 6.4095,1.8907 6,6 0 0 1 -0.75268,0.93774 6,6 0 0 1 -8.4853,0 6,6 0 0 1 0,-8.4853 z"
     fill="#dedede"
     id="path78" />
</svg>
