<?xml version="1.0" encoding="UTF-8" standalone="no"?>
<svg
   width="128"
   height="128"
   version="1.1"
   id="svg6"
   sodipodi:docname="lock.svg"
   viewBox="0 0 16 16"
   inkscape:version="1.2.1 (9c6d41e410, 2022-07-14, custom)"
   xmlns:inkscape="http://www.inkscape.org/namespaces/inkscape"
   xmlns:sodipodi="http://sodipodi.sourceforge.net/DTD/sodipodi-0.dtd"
   xmlns="http://www.w3.org/2000/svg"
   xmlns:svg="http://www.w3.org/2000/svg">
  <defs
     id="defs10" />
  <sodipodi:namedview
     id="namedview8"
     pagecolor="#ffffff"
     bordercolor="#000000"
     borderopacity="0.25"
     inkscape:showpageshadow="2"
     inkscape:pageopacity="0.0"
     inkscape:pagecheckerboard="0"
     inkscape:deskcolor="#d1d1d1"
     showgrid="false"
     inkscape:zoom="53.9375"
     inkscape:cx="3.3371958"
     inkscape:cy="8.00927"
     inkscape:window-width="954"
     inkscape:window-height="1013"
     inkscape:window-x="0"
     inkscape:window-y="0"
     inkscape:window-maximized="1"
     inkscape:current-layer="svg6" />
  <path
     d="M 8,0 C 5.784,0 4,1.784 4,4 V 6 H 5 V 4 C 5,2.338 6.338,1 8,1 c 1.662,0 3,1.338 3,3 v 2 h 1 V 4 C 12,1.784 10.216,0 8,0 Z"
     fill="#dedede"
     id="path2" />
  <path
     d="M 4,6 C 2.892,6 2,6.892 2,8 v 5 c 0,1.108 0.892,2 2,2 h 8 c 1.108,0 2,-0.892 2,-2 V 8 C 14,6.892 13.108,6 12,6 Z m 0,1 h 8 c 0.554,0 1,0.446 1,1 v 5 c 0,0.554 -0.446,1 -1,1 H 4 C 3.446,14 3,13.554 3,13 V 8 C 3,7.446 3.446,7 4,7 Z"
     fill="#dedede"
     id="path4" />
</svg>
