<?xml version="1.0" encoding="UTF-8" standalone="no"?>
<svg
   width="128"
   height="128"
   version="1.1"
   viewBox="0 0 16 16"
   id="svg4"
   sodipodi:docname="logout.svg"
   inkscape:version="1.2.1 (9c6d41e410, 2022-07-14, custom)"
   xmlns:inkscape="http://www.inkscape.org/namespaces/inkscape"
   xmlns:sodipodi="http://sodipodi.sourceforge.net/DTD/sodipodi-0.dtd"
   xmlns="http://www.w3.org/2000/svg"
   xmlns:svg="http://www.w3.org/2000/svg">
  <defs
     id="defs8" />
  <sodipodi:namedview
     id="namedview6"
     pagecolor="#ffffff"
     bordercolor="#000000"
     borderopacity="0.25"
     inkscape:showpageshadow="2"
     inkscape:pageopacity="0.0"
     inkscape:pagecheckerboard="0"
     inkscape:deskcolor="#d1d1d1"
     showgrid="false"
     inkscape:zoom="53.9375"
     inkscape:cx="3.3371958"
     inkscape:cy="8.00927"
     inkscape:window-width="954"
     inkscape:window-height="1013"
     inkscape:window-x="0"
     inkscape:window-y="0"
     inkscape:window-maximized="1"
     inkscape:current-layer="svg4" />
  <path
     d="M 8,1 C 6.338,1 5,2.338 5,4 V 6 H 6 V 4 C 6,2.892 6.892,2 8,2 h 4 c 1.108,0 2,0.892 2,2 v 8 c 0,1.108 -0.892,2 -2,2 H 8 C 6.892,14 6,13.108 6,12 V 10 H 5 v 2 c 0,1.662 1.338,3 3,3 h 4 c 1.662,0 3,-1.338 3,-3 V 4 C 15,2.338 13.662,1 12,1 Z M 3.3281,4.6699 c -0.12781,0 -0.25558,0.050503 -0.35352,0.14844 l -2.8281,2.8281 C 0.134238,7.658682 0.123988,7.670432 0.113277,7.683549 v 0.00195 C 0.110659,7.688729 0.107997,7.691989 0.105464,7.695269 0.093057,7.71133 0.082667,7.72851 0.072261,7.74605 0.0702568,7.74935 0.0683257,7.75248 0.0664016,7.75582 0.0559206,7.774449 0.0451706,7.792434 0.0371046,7.812461 0.0350431,7.817581 0.033141,7.822884 0.0312452,7.828086 0.0232201,7.849227 0.0166732,7.870697 0.0117142,7.892539 0.007755,7.910809 0.0038634,7.930212 0.0019486,7.94918 c -6.441e-5,6.418e-4 6.172e-5,0.00131 0,0.00195 v 0.00195 c -0.00288,0.031209 -0.003,0.06255 0,0.09375 v 0.00195 c 0.0019059,0.019638 0.0056713,0.0397 0.0097656,0.058594 0.0062223,0.027764 0.014298,0.055421 0.025391,0.082031 0.0044465,0.010923 0.010446,0.020733 0.015625,0.03125 0.0073555,0.014658 0.014582,0.02892 0.023438,0.042969 0.0084328,0.013558 0.017688,0.02642 0.027344,0.039062 0.003134,0.00408 0.006496,0.00771 0.009766,0.011719 v 0.00195 c 0.010444,0.012713 0.021317,0.025223 0.033203,0.037109 l 2.8281,2.8281 c 0.19587,0.19587 0.51116,0.19587 0.70703,0 0.19587,-0.19587 0.19587,-0.51116 0,-0.70703 l -1.9746,-1.9746 h 7.793 c 0.277,0 0.4999998,-0.223 0.4999998,-0.5 0,-0.277 -0.2229998,-0.5 -0.4999998,-0.5 h -7.793 l 1.9746,-1.9746 c 0.19587,-0.19587 0.19587,-0.51116 0,-0.70703 -0.097934,-0.097934 -0.22571,-0.14844 -0.35352,-0.14844 z"
     fill="#dedede"
     id="path2" />
</svg>
