<?xml version="1.0" encoding="UTF-8" standalone="no"?>
<svg
   width="128"
   height="128"
   version="1.1"
   id="svg39"
   sodipodi:docname="poweroff-hover.svg"
   viewBox="0 0 16 16"
   inkscape:version="1.2.1 (9c6d41e410, 2022-07-14, custom)"
   xmlns:inkscape="http://www.inkscape.org/namespaces/inkscape"
   xmlns:sodipodi="http://sodipodi.sourceforge.net/DTD/sodipodi-0.dtd"
   xmlns="http://www.w3.org/2000/svg"
   xmlns:svg="http://www.w3.org/2000/svg">
  <defs
     id="defs43" />
  <sodipodi:namedview
     id="namedview41"
     pagecolor="#ffffff"
     bordercolor="#000000"
     borderopacity="0.25"
     inkscape:showpageshadow="2"
     inkscape:pageopacity="0.0"
     inkscape:pagecheckerboard="0"
     inkscape:deskcolor="#d1d1d1"
     showgrid="false"
     inkscape:zoom="9.8219318"
     inkscape:cx="55.793505"
     inkscape:cy="71.879953"
     inkscape:window-width="954"
     inkscape:window-height="1013"
     inkscape:window-x="0"
     inkscape:window-y="0"
     inkscape:window-maximized="1"
     inkscape:current-layer="svg39" />
  <g
     transform="translate(-52,-320)"
     fill="#dedede"
     id="g37"
     style="fill:#000000;fill-opacity:1">
    <path
       d="m 53,327.43 c -0.0103,0.6801 0.08756,1.3691 0.30078,2.043 0.8529,2.6956 3.365,4.5312 6.1992,4.5312 2.8342,0 5.3463,-1.8357 6.1992,-4.5312 0.8529,-2.6956 -0.1484,-5.6355 -2.4707,-7.2559 l -0.57227,0.82031 c 1.9682,1.3733 2.8119,3.8526 2.0898,6.1348 -0.7221,2.2822 -2.8427,3.832 -5.2461,3.832 -2.4034,0 -4.524,-1.5498 -5.2461,-3.832 -0.7221,-2.2822 0.12169,-4.7615 2.0898,-6.1348 l -0.57227,-0.82031 c -1.7417,1.2153 -2.7406,3.1726 -2.7715,5.2129 z"
       id="path33"
       style="fill:#000000;fill-opacity:1" />
    <path
       d="m 59,321 v 7 h 1 v -7 z"
       id="path35"
       style="fill:#000000;fill-opacity:1" />
  </g>
</svg>
