<?xml version="1.0" encoding="UTF-8" standalone="no"?>
<svg
   height="128"
   width="128"
   version="1.1"
   id="svg6"
   sodipodi:docname="reboot.svg"
   viewBox="0 0 16 16"
   inkscape:version="1.2.1 (9c6d41e410, 2022-07-14, custom)"
   xmlns:inkscape="http://www.inkscape.org/namespaces/inkscape"
   xmlns:sodipodi="http://sodipodi.sourceforge.net/DTD/sodipodi-0.dtd"
   xmlns="http://www.w3.org/2000/svg"
   xmlns:svg="http://www.w3.org/2000/svg">
  <defs
     id="defs10" />
  <sodipodi:namedview
     id="namedview8"
     pagecolor="#ffffff"
     bordercolor="#000000"
     borderopacity="0.25"
     inkscape:showpageshadow="2"
     inkscape:pageopacity="0.0"
     inkscape:pagecheckerboard="0"
     inkscape:deskcolor="#d1d1d1"
     showgrid="false"
     inkscape:zoom="53.9375"
     inkscape:cx="3.3371958"
     inkscape:cy="8.00927"
     inkscape:window-width="954"
     inkscape:window-height="1013"
     inkscape:window-x="0"
     inkscape:window-y="0"
     inkscape:window-maximized="1"
     inkscape:current-layer="svg6" />
  <g
     transform="translate(-833,191.003)"
     id="g4">
    <path
       color="#000000"
       d="M 841.488,-189.982 A 7.006,7.006 0 0 0 834,-183 a 7.006,7.006 0 0 0 5.192,6.762 c 3.059,0.819 6.293,-0.52 7.877,-3.262 a 0.50085527,0.50085527 0 1 0 -0.868,-0.5 5.999,5.999 0 0 1 -6.752,2.795 A 5.996,5.996 0 0 1 835,-183 a 5.996,5.996 0 0 1 10.71,-3.709 L 844,-185 h 4 v -4 l -1.58,1.58 a 7.012,7.012 0 0 0 -4.932,-2.562 z"
       fill="#dedede"
       font-family="sans-serif"
       font-weight="400"
       overflow="visible"
       style="line-height:normal;font-variant-ligatures:normal;font-variant-position:normal;font-variant-caps:normal;font-variant-numeric:normal;font-variant-alternates:normal;font-feature-settings:normal;text-indent:0;text-align:start;text-decoration-line:none;text-decoration-style:solid;text-decoration-color:#000000;text-transform:none;text-orientation:mixed;shape-padding:0;isolation:auto;mix-blend-mode:normal"
       white-space="normal"
       id="path2" />
  </g>
</svg>
